STARTFONT 2.1
COMMENT $Id: 6x12.bdf,v 1.32 2008-06-26 12:50:43+01 mgk25 Rel $
COMMENT Send bug reports to Markus Kuhn <http://www.cl.cam.ac.uk/~mgk25/>
FONT -Misc-Fixed-Medium-R-SemiCondensed--12-110-75-75-C-60-ISO10646-1
SIZE 12 75 75
FONTBOUNDINGBOX 6 12 0 -2
STARTPROPERTIES 22
FONTNAME_REGISTRY ""
FOUNDRY "Misc"
FAMILY_NAME "Fixed"
WEIGHT_NAME "Medium"
SLANT "R"
SETWIDTH_NAME "SemiCondensed"
ADD_STYLE_NAME ""
PIXEL_SIZE 12
POINT_SIZE 120
RESOLUTION_X 75
RESOLUTION_Y 75
SPACING "C"
AVERAGE_WIDTH 60
CHARSET_REGISTRY "ISO10646"
CHARSET_ENCODING "1"
FONT_ASCENT 10
FONT_DESCENT 2
DEFAULT_CHAR 0
COPYRIGHT "Public domain terminal emulator font.  Share and enjoy."
CAP_HEIGHT 7
X_HEIGHT 5
_GBDFED_INFO "Edited with gbdfed 1.3."
ENDPROPERTIES
CHARS 4531
STARTCHAR colon
ENCODING 58
SWIDTH 480 0
DWIDTH 6 0
BBX 6 12 0 -2
BITMAP
60
60
00
00
00
00
00
00
00
00
60
60
ENDCHAR
ENDFONT
